<svg xmlns="http://www.w3.org/2000/svg" width="1024" height="1024" viewBox="0 0 1024 1024">
<path d="M 799.67 168.33 L 773.67 152.00 L 746.33 144.67 L 719.33 145.00 L 692.00 153.00 L 668.00 167.67 L 646.33 190.67 L 635.33 209.33 L 615.67 256.00 L 378.33 204.00 L 362.67 205.33 L 339.33 215.00 L 321.33 232.00 L 312.00 250.67 L 303.67 288.67 L 249.33 290.33 L 232.00 297.00 L 217.67 308.33 L 208.33 321.33 L 202.33 336.67 L 201.33 369.33 L 180.00 375.67 L 163.33 386.33 L 151.33 401.33 L 143.67 425.67 L 146.67 461.33 L 194.33 777.67 L 202.67 803.00 L 216.33 820.33 L 238.67 834.33 L 267.33 838.67 L 710.33 798.00 L 728.33 790.33 L 765.67 762.00 L 774.67 748.00 L 783.00 721.67 L 867.00 385.00 L 865.33 365.00 L 857.00 345.00 L 841.67 327.67 L 820.67 315.33 L 833.00 265.33 L 834.00 234.33 L 830.00 215.67 L 821.00 194.67 Z" fill="rgb(252,251,252)"/>
<path d="M 303.50 836.04 C285.90,837.67 267.45,838.97 262.50,838.94 C233.43,838.75 207.19,819.49 197.61,791.31 C196.28,787.40 194.00,775.94 192.54,765.85 C191.08,755.76 188.80,740.53 187.47,732.00 C186.13,723.47 183.93,708.85 182.56,699.50 C181.19,690.15 179.16,676.42 178.06,669.00 C174.80,647.20 169.22,609.31 165.46,583.50 C163.54,570.30 161.53,556.80 160.99,553.50 C160.45,550.20 158.45,537.15 156.54,524.50 C154.63,511.85 150.97,488.00 148.41,471.50 C141.97,430.02 142.13,420.80 149.55,405.35 C158.28,387.15 176.71,373.60 195.79,371.34 C196.20,371.29 196.58,371.24 196.94,371.19 C198.23,371.00 199.17,370.87 199.87,371.22 C201.94,372.24 201.98,377.38 202.94,397.50 C204.12,422.01 209.42,521.85 210.98,549.00 C213.17,587.15 215.11,622.25 217.04,658.77 C218.15,679.82 219.47,699.23 219.98,701.91 C223.96,722.89 237.94,740.67 257.46,749.61 C269.51,755.13 264.64,754.58 354.50,760.49 C458.45,767.32 529.32,772.08 585.50,775.99 C649.21,780.42 660.40,781.10 657.50,780.38 C654.21,779.56 649.09,776.66 649.57,775.89 C650.23,774.83 644.34,773.73 638.26,773.79 C635.04,773.82 632.44,773.30 631.59,772.45 C629.52,770.38 610.02,765.67 607.51,766.64 C606.64,766.97 605.15,766.57 604.21,765.76 C602.73,764.47 596.31,762.99 590.82,762.67 C589.90,762.62 589.32,762.29 589.54,761.94 C590.10,761.02 571.17,757.18 566.68,757.30 C564.58,757.35 562.56,756.92 562.18,756.34 C561.81,755.76 559.92,754.77 558.00,754.13 C550.89,751.80 484.60,736.66 376.00,712.56 C335.02,703.47 299.02,695.30 296.00,694.41 C285.24,691.24 275.02,685.06 266.40,676.52 C251.77,662.02 244.92,646.73 244.22,627.00 C243.86,616.80 244.27,613.01 247.85,593.50 C250.07,581.40 254.40,557.78 257.47,541.00 C260.55,524.22 264.19,504.42 265.57,497.00 C266.95,489.58 268.95,478.77 270.02,473.00 C271.08,467.23 274.21,450.35 276.97,435.50 C279.73,420.65 282.23,407.15 282.53,405.50 C282.83,403.85 284.64,394.17 286.56,384.00 C288.47,373.83 292.30,353.35 295.08,338.50 C311.58,250.21 311.96,248.49 317.03,239.31 C329.74,216.29 355.44,202.26 381.01,204.38 C385.15,204.73 399.77,207.51 413.51,210.56 C427.26,213.62 441.42,216.75 445.00,217.53 C448.58,218.30 459.60,220.78 469.50,223.03 C521.96,234.95 533.12,237.48 551.00,241.53 C561.72,243.95 580.39,248.20 592.47,250.97 C604.55,253.74 615.17,256.00 616.07,256.00 C617.28,256.00 619.30,251.44 623.93,238.25 C634.85,207.11 643.87,191.29 659.59,175.61 C681.62,153.66 711.58,142.23 741.45,144.40 C788.61,147.81 825.66,182.47 833.58,230.59 C836.52,248.51 834.10,268.75 825.42,298.73 C822.99,307.12 821.00,314.57 821.00,315.29 C821.00,316.01 823.25,317.41 826.00,318.40 C833.57,321.12 841.78,326.90 849.00,334.59 C860.92,347.28 867.30,363.52 867.25,381.00 C867.22,389.92 866.27,394.21 851.70,451.50 C843.17,485.05 832.95,525.33 828.99,541.00 C825.03,556.67 818.73,581.42 814.99,596.00 C811.25,610.58 801.60,648.83 793.55,681.00 C777.48,745.25 775.84,750.09 766.10,761.79 C760.50,768.51 752.51,775.26 746.31,778.48 C744.21,779.57 740.47,782.12 738.00,784.14 C731.87,789.15 722.01,794.37 713.00,797.37 C705.32,799.93 701.57,800.37 638.50,805.96 C589.52,810.30 464.89,821.47 437.50,823.97 C395.61,827.79 381.40,829.07 358.50,831.07 C345.85,832.18 321.10,834.41 303.50,836.04 ZM 705.50 766.27 C714.76,767.60 725.37,765.81 734.67,761.34 C741.74,757.95 753.40,746.63 757.18,739.50 C758.95,736.17 764.56,715.78 773.98,678.50 C781.76,647.70 790.83,611.92 794.13,599.00 C797.42,586.08 802.77,565.15 805.99,552.50 C809.22,539.85 816.15,512.62 821.37,492.00 C826.60,471.38 834.73,439.34 839.44,420.81 C848.35,385.74 849.21,379.95 846.92,370.03 C843.36,354.58 830.13,339.67 816.33,335.56 C814.31,334.96 813.84,335.95 808.98,351.21 C790.24,410.08 761.62,498.95 758.96,506.50 C757.22,511.45 754.17,518.20 752.19,521.50 C747.41,529.42 736.06,540.57 727.98,545.28 C717.04,551.65 700.33,555.75 690.50,554.47 C659.11,550.39 638.74,532.14 630.90,501.08 C629.13,494.07 628.85,490.62 629.22,480.58 L 629.67 468.50 L 640.92 434.50 C647.11,415.80 662.49,369.43 675.09,331.46 C687.69,293.48 698.00,261.94 698.00,261.36 C698.00,258.96 704.26,251.91 708.16,249.92 C713.27,247.31 722.16,246.99 726.50,249.25 C736.72,254.60 742.53,262.23 743.67,271.84 C743.72,272.27 743.78,272.65 743.82,273.02 C744.29,277.30 742.79,281.79 709.62,381.06 C708.28,385.08 706.88,389.26 705.43,393.59 L 704.62 396.03 C677.06,478.53 674.06,487.49 676.70,494.25 C677.04,495.14 677.49,496.00 677.99,496.97 C684.09,508.94 700.69,508.14 709.09,495.47 C710.54,493.29 713.85,484.75 716.44,476.50 C720.80,462.61 735.05,418.39 748.98,375.50 C754.91,357.28 767.35,318.55 779.39,280.88 C789.67,248.68 789.98,242.65 782.13,227.50 C765.31,195.02 720.79,188.37 693.42,214.26 C689.62,217.86 685.04,223.23 683.25,226.20 C680.30,231.09 669.58,259.72 663.37,279.25 C662.02,283.51 660.45,287.00 659.87,287.00 C659.30,287.00 655.38,286.13 651.17,285.06 C639.61,282.13 497.02,249.27 449.50,238.59 C438.50,236.12 419.46,231.82 407.18,229.05 C380.26,222.96 372.19,222.52 360.75,226.52 C352.09,229.54 348.05,232.12 341.75,238.61 C332.82,247.79 330.50,253.85 325.44,281.21 C320.77,306.42 320.47,308.01 312.02,352.50 C306.34,382.44 305.17,388.66 298.59,423.80 C296.09,437.16 293.37,451.56 292.56,455.80 C288.72,475.71 282.65,508.09 278.00,533.50 C270.52,574.32 268.83,583.45 265.91,598.92 C262.64,616.27 262.22,627.58 264.53,636.45 C268.45,651.52 279.47,665.00 293.18,671.51 C297.81,673.70 306.21,676.27 316.00,678.47 C331.21,681.89 394.02,695.82 433.50,704.51 C453.78,708.98 482.29,715.45 554.50,731.98 C576.50,737.02 602.15,742.89 611.50,745.02 C620.85,747.14 645.15,752.70 665.50,757.36 C685.85,762.02 703.85,766.03 705.50,766.27 ZM 539.46 633.38 C538.74,633.65 538.13,633.89 537.50,633.99 C533.85,634.58 529.48,630.70 499.66,604.21 L 499.57 604.13 C479.52,586.32 474.23,582.10 472.57,582.59 C471.43,582.93 463.08,585.91 454.00,589.22 C419.39,601.82 398.71,609.00 397.02,609.00 C393.61,609.00 390.00,605.10 390.00,601.42 C390.00,599.25 395.75,584.18 405.59,560.60 L 421.17 523.21 L 406.42 501.35 C398.30,489.33 388.37,474.67 384.33,468.77 C376.19,456.86 375.15,452.85 379.14,448.86 C381.68,446.32 383.43,446.38 430.98,450.63 L 460.47 453.26 L 462.18 450.88 C493.58,407.32 509.48,386.29 511.93,385.12 C516.03,383.14 519.75,384.37 521.50,388.28 C522.29,390.05 523.60,395.77 524.41,401.00 C525.57,408.45 531.87,446.25 535.52,467.68 C535.97,470.29 536.74,471.08 539.78,472.06 C544.30,473.50 578.66,485.46 596.37,491.75 C608.38,496.02 609.33,496.55 610.65,499.71 C613.16,505.71 611.76,507.02 586.00,522.67 C573.08,530.52 558.06,539.54 552.64,542.72 L 542.79 548.50 L 543.42 587.74 C543.97,621.44 543.85,627.40 542.57,629.87 C541.75,631.46 540.35,633.04 539.46,633.38 ZM 668.50 781.00 C668.84,781.55 671.23,781.96 673.81,781.90 C677.65,781.82 678.05,781.66 676.00,781.00 C672.33,779.83 667.77,779.83 668.50,781.00 Z" fill="rgb(122,60,236)"/>
<path d="M 191.49 372.04 C192.96,371.65 194.46,371.29 196.00,370.96 L 201.50 369.79 L 201.15 357.15 C200.93,349.55 201.28,342.32 202.01,339.00 C207.48,314.21 225.83,295.53 249.67,290.48 C254.51,289.46 263.38,289.03 280.17,289.02 L 303.84 289.00 L 304.87 285.75 C305.00,285.32 305.20,284.52 305.45,283.45 C302.92,296.58 299.61,314.28 295.08,338.50 C292.30,353.35 288.47,373.83 286.56,384.00 C284.64,394.17 282.83,403.85 282.53,405.50 C282.23,407.15 279.73,420.65 276.97,435.50 C274.21,450.35 271.08,467.23 270.02,473.00 C268.95,478.77 266.95,489.58 265.57,497.00 C264.19,504.42 260.55,524.22 257.47,541.00 C254.40,557.78 250.07,581.40 247.85,593.50 C244.27,613.01 243.86,616.80 244.22,627.00 C244.92,646.73 251.77,662.02 266.40,676.52 C275.02,685.06 285.24,691.24 296.00,694.41 C299.02,695.30 335.02,703.47 376.00,712.56 C484.60,736.66 550.89,751.80 558.00,754.13 C559.92,754.77 561.81,755.76 562.18,756.34 C562.56,756.92 564.58,757.35 566.68,757.30 C571.17,757.18 590.10,761.02 589.54,761.94 C589.32,762.29 589.90,762.62 590.82,762.67 C596.31,762.99 602.73,764.47 604.21,765.76 C605.15,766.57 606.64,766.97 607.51,766.64 C610.02,765.67 629.52,770.38 631.59,772.45 C632.44,773.30 635.04,773.82 638.26,773.79 C644.34,773.73 650.23,774.83 649.57,775.89 C649.09,776.66 654.21,779.56 657.50,780.38 C660.40,781.10 649.21,780.42 585.50,775.99 C529.32,772.08 458.45,767.32 354.50,760.49 C264.64,754.58 269.51,755.13 257.46,749.61 C237.94,740.67 223.96,722.89 219.98,701.91 C219.47,699.23 218.15,679.82 217.04,658.77 C215.11,622.25 213.17,587.15 210.98,549.00 C209.42,521.85 204.12,422.01 202.94,397.50 C201.98,377.38 201.94,372.24 199.87,371.22 C199.17,370.87 198.23,371.00 196.94,371.19 C196.58,371.24 196.20,371.29 195.79,371.34 C194.35,371.51 192.91,371.74 191.49,372.04 ZM 668.50 781.00 C667.77,779.83 672.33,779.83 676.00,781.00 C678.05,781.66 677.65,781.82 673.81,781.90 C671.23,781.96 668.84,781.55 668.50,781.00 ZM 309.03 265.37 C311.92,249.89 313.12,246.26 317.40,238.62 C322.62,229.28 330.14,221.43 338.96,215.59 C330.01,221.55 322.37,229.64 317.03,239.31 C314.13,244.56 312.77,247.37 309.03,265.37 ZM 170.49 381.16 C161.66,387.22 154.22,395.62 149.55,405.35 C154.43,395.18 161.41,387.12 170.49,381.16 Z" fill="rgb(205,168,247)"/>
<path d="M 292 676 C382 696 590 742 707 768 C697 776 681 781 663 780 C545 754 425 728 313 703 C302 701 288 695 278 688 C281 682 286 678 292 676 Z" fill="rgb(122,60,236)"/>
</svg>